<svg width="16px" height="16px" viewBox="0 0 16 16" version="1.1" xmlns="http://www.w3.org/2000/svg" xmlns:xlink="http://www.w3.org/1999/xlink">
    <!-- Generator: Sketch 46.2 (44496) - http://www.bohemiancoding.com/sketch -->
    <desc>Created with Sketch.</desc>
    <defs></defs>
    <g id="Page-1" stroke="none" stroke-width="1" fill="none" fill-rule="evenodd">
        <g id="服务" transform="translate(-1629.000000, -4304.000000)" fill-rule="nonzero" fill="#FFFFFF">
            <g id="底部" transform="translate(-1.000000, 4244.000000)">
                <g id="behance-(1)" transform="translate(1630.000000, 60.000000)">
                    <path d="M7.99762904,0 C3.58065406,0 0,3.58065406 0,7.99762886 C0,12.4145883 3.58065406,15.9952584 7.99762904,15.9952584 C12.414604,15.9952584 15.9952741,12.4145883 15.9952741,7.99762886 C15.9952741,3.58065406 12.414604,0 7.99762904,0 L7.99762904,0 Z M9.71557066,5.06790846 L12.4123343,5.06790846 L12.4123343,5.82636914 L9.71557066,5.82636914 L9.71557066,5.06790846 L9.71557066,5.06790846 Z M8.07830244,10.2190162 C7.93600915,10.5082219 7.74162258,10.7393089 7.49533466,10.9121324 C7.24898276,11.0850519 6.9452468,11.1914124 6.58422264,11.2311332 C6.3577394,11.2556538 5.81151978,11.2709508 4.94556379,11.2770568 L2.65512416,11.2770568 L2.65512416,4.54801542 L5.34488655,4.54801542 C5.87735961,4.54801542 6.27438065,4.57024981 6.53599767,4.61457442 C6.79764665,4.6589631 7.03175448,4.75156087 7.23828917,4.89228762 C7.44485584,5.03307844 7.61699206,5.22048013 7.75468187,5.45455539 C7.89238768,5.68866334 7.96124852,5.95109562 7.96124852,6.24177215 C7.96124852,6.55696929 7.87633927,6.84615903 7.70648881,7.10929467 C7.53665434,7.37251039 7.3063668,7.56986978 7.01569012,7.70142159 C7.42567449,7.82076146 7.74090327,8.02429089 7.96123258,8.31189909 C8.18156181,8.59957069 8.29172645,8.93768888 8.29172645,9.32628637 C8.2917424,9.63229186 8.22059572,9.9298578 8.07830244,10.2190162 L8.07830244,10.2190162 Z M13.4725809,9.21150228 L10.0175803,9.21150228 C10.0273948,9.59408923 10.1385664,9.89165515 10.351319,10.1042955 C10.5639278,10.3170165 10.8289495,10.423297 11.1463362,10.423297 C11.3622697,10.423297 11.5438527,10.3682466 11.6910693,10.2580817 C11.8383177,10.1479174 11.9495054,9.97047412 12.024808,9.72560899 L13.3989406,9.94135035 C13.2222489,10.4125872 12.9432887,10.7714377 12.5621882,11.0177095 C12.1810077,11.2640934 11.7041285,11.3872056 11.1316145,11.3872056 C10.2253139,11.3872056 9.55455962,11.1102752 9.1194317,10.556431 C8.77591049,10.1127357 8.60417392,9.55275353 8.60417392,8.87643639 C8.60417392,8.06858415 8.82992191,7.43595234 9.28141782,6.9784302 C9.7329138,6.52102018 10.3038453,6.29221942 10.9942124,6.29221942 C11.7696007,6.29221942 12.3813724,6.53168192 12.8296715,7.01055892 C13.2778747,7.489532 13.4922097,8.22315309 13.4725809,9.21150228 Z M6.31570035,8.44036587 C6.13055281,8.37610847 5.7288963,8.34399576 5.1108107,8.34399576 L4.01378398,8.34399576 L4.01378398,10.1432976 L5.27145417,10.1432976 C5.76100899,10.1432976 6.07166622,10.1295194 6.20325,10.1019779 C6.40519714,10.065262 6.56966083,9.97576529 6.69668906,9.83347167 C6.8236373,9.69119473 6.88715941,9.50069202 6.88715941,9.26199692 C6.88715941,9.06003369 6.83819913,8.88869637 6.74029452,8.74792156 C6.64229408,8.60717878 6.50081592,8.50465465 6.31570035,8.44036587 Z M5.89110624,7.20107763 C6.12364753,7.17353608 6.30652531,7.0932143 6.43964357,6.96008028 C6.57272988,6.8269783 6.63930496,6.65183661 6.63930496,6.43454441 C6.63930496,6.22649123 6.58192092,6.05744014 6.46715278,5.92734309 C6.35240058,5.79730943 6.18181487,5.71850648 5.95536358,5.69094957 C5.8206948,5.67566797 5.43360011,5.66799582 4.79406344,5.66799582 L4.01376796,5.66799582 L4.01376796,7.22403139 L4.90422808,7.22403139 C5.43363208,7.22403139 5.76260741,7.21642262 5.89110624,7.20107763 Z M11.0776351,7.27911318 C10.7765526,7.27911318 10.5279629,7.38166933 10.3316582,7.5866375 C10.1353535,7.79168574 10.0388077,8.07016635 10.0421004,8.42203131 L12.1033074,8.42203131 C12.093525,8.04873142 11.9904255,7.76494362 11.7941368,7.57057314 C11.5978321,7.37628273 11.3589769,7.27911318 11.0776351,7.27911318 Z" id="Shape"></path>
                </g>
            </g>
        </g>
    </g>
</svg>