<svg width="75px" height="71px" viewBox="0 0 75 71" version="1.1" xmlns="http://www.w3.org/2000/svg" xmlns:xlink="http://www.w3.org/1999/xlink">
    <!-- Generator: Sketch 46.2 (44496) - http://www.bohemiancoding.com/sketch -->
    <desc>Created with Sketch.</desc>
    <defs></defs>
    <g id="Page-1" stroke="none" stroke-width="1" fill="none" fill-rule="evenodd">
        <g id="服务" transform="translate(-255.000000, -1260.000000)" fill-rule="nonzero" fill="#FFCA00">
            <g id="品牌策略" transform="translate(212.000000, 1260.000000)">
                <g id="品牌" transform="translate(43.000000, 0.000000)">
                    <path d="M18.9451774,28.5798634 C18.6682397,27.7474402 17.8374268,27.1924914 17.0066138,27.1924914 L1.77504294,27.1924914 C0.11341704,27.1924914 -0.163520622,28.0249146 0.667292365,29.4122866 L28.3610575,62.9866893 C30.2996211,65.483959 31.1304341,64.9290101 30.0226834,62.1542661 L18.9451774,28.5798634 L18.9451774,28.5798634 Z M17.2835514,24.4177474 C18.1143644,24.4177474 18.9451773,23.8627986 19.222115,23.3078498 L29.7457458,1.38737199 C30.0226834,0.832423163 29.7457458,0.277474413 28.9149328,0.277474413 L20.3298656,0.277474413 C18.6682397,0.277474413 16.7296762,1.38737199 15.8988632,2.49726964 L0.390354703,22.1979522 C-0.440458285,23.5853242 0.11341704,24.4177474 1.49810535,24.4177474 L17.2835514,24.4177474 Z M23.3761798,24.4177474 L51.6238203,24.4177474 C52.4546333,24.4177474 52.7315709,23.8627986 52.4546332,23.3078498 L41.9310025,1.38737199 C41.6540648,0.832423163 40.8232519,0.277474413 39.9924389,0.277474413 L35.2844988,0.277474413 C34.4536858,0.277474413 33.6228729,0.832423239 33.3459352,1.38737199 L22.5453669,23.3078498 C22.2684292,23.8627986 22.5453669,24.4177474 23.3761798,24.4177474 L23.3761798,24.4177474 Z M74.6096453,22.1979522 L59.1011369,2.21979523 C58.2703239,1.10989765 56.0548227,0 54.6701344,0 L45.8081296,0 C44.9773166,0 44.700379,0.554948826 44.9773166,1.10989765 L55.5009474,23.0303754 C55.7778851,23.5853242 56.608698,24.1402729 57.439511,24.140273 L73.5018947,24.140273 C74.8865829,24.4177474 75.4404583,23.5853242 74.6096453,22.1979522 Z M52.4546332,27.1924914 L23.0992421,27.1924914 C22.2684291,27.1924914 21.9914915,27.7474402 22.2684292,28.5798634 L35.5614365,68.8136518 C36.669187,71.5883958 38.0538753,71.8658702 39.1616259,68.8136518 L53.2854462,28.5798634 C53.5623838,28.0249146 53.0085085,27.1924914 52.4546332,27.1924914 L52.4546332,27.1924914 Z M57.9933862,27.1924914 C57.1625732,27.1924914 56.3317603,27.7474402 56.0548226,28.5798634 L44.1465037,62.7092149 C43.0387531,65.483959 43.869566,66.0389077 45.8081296,63.5416381 L73.7788324,29.4122866 C75.1635206,28.3023891 74.6096453,27.1924914 73.2249571,27.1924914 L57.9933862,27.1924914 Z" id="Shape"></path>
                </g>
            </g>
        </g>
    </g>
</svg>