
<svg width="16px" height="16px" viewBox="0 0 16 16" version="1.1" xmlns="http://www.w3.org/2000/svg" xmlns:xlink="http://www.w3.org/1999/xlink">
    <!-- Generator: Sketch 48.2 (47327) - http://www.bohemiancoding.com/sketch -->
    <desc>Created with Sketch.</desc>
    <defs></defs>
    <g id="Page-1" stroke="none" stroke-width="1" fill="none" fill-rule="evenodd">
        <g id="二屏" transform="translate(-180.000000, -1998.000000)" fill="#A7A7A7">
            <g id="底部" transform="translate(20.000000, 1699.000000)">
                <g id="dribbble" transform="translate(160.000000, 299.000000)">
                    <path d="M8.00004883,0 C3.58146922,0 0,3.58146922 0,8.00004883 C0,12.4185308 3.58146922,16 8.00004883,16 C12.4185308,16 16,12.4185308 16,8.00004883 C16,3.58146922 12.4185308,0 8.00004883,0 Z M8.00004883,1.59951367 C9.48647642,1.59951367 10.838021,2.12799088 11.9239989,2.97851926 C11.4189983,3.41400807 10.3340361,4.24004424 8.67600668,5.02350223 C8.06450203,3.94447747 7.3449699,2.85049176 6.48453917,1.8000022 C6.97305539,1.68097861 7.47551694,1.60004102 8.00004883,1.60004102 L8.00004883,1.59951367 Z M5.2794791,2.22748319 C5.76401094,2.88551133 6.56098457,4.05150885 7.40151294,5.54000676 C5.60547559,6.12901139 3.53051212,6.14854266 1.92498282,6.01951907 C2.47703427,4.3435014 3.6994967,2.97447629 5.2794791,2.22748319 Z M7.9139745,6.47750791 C8.13850603,6.90698109 8.36053755,7.370009 8.57903391,7.83997051 C5.22553372,8.57551828 3.65502399,10.7765366 3.02695682,11.9835107 C2.14699481,10.8880016 1.5989668,9.51448427 1.5989668,8.00004883 C1.5989668,7.71698208 1.62453323,7.44049736 1.6605489,7.1679775 C2.92197622,7.34299724 5.15549457,7.41096608 7.91352529,6.47750791 L7.9139745,6.47750791 Z M9.13399552,9.13102677 C9.73253141,10.5940364 10.2580399,12.1790383 10.5645051,13.8575169 C9.77852756,14.20199 8.91297963,14.4005059 8.00004883,14.4005059 C6.48149229,14.4005059 5.10551404,13.848513 4.00803224,12.9660119 C5.59699902,10.7570053 7.43852471,9.64249224 9.13399552,9.13102677 Z M11.7099948,13.1980239 C11.6290376,12.7400351 11.279545,11.0280017 10.4509893,8.83653422 C12.3895464,8.54950262 13.9275561,8.92854606 14.3045292,9.0374915 C14.0225366,10.7485287 13.0645081,12.2290188 11.7099948,13.1974966 L11.7099948,13.1980239 Z M9.96803951,7.64153277 C9.73550017,7.10153211 9.48548033,6.54953925 9.19350732,5.98153074 C10.351497,5.4805145 11.5820454,4.79600195 12.8565391,3.87603989 C13.8054856,4.99199828 14.4005059,6.41998831 14.4005059,8.00004883 C12.6934921,7.6210054 11.2325332,7.53799748 9.96803951,7.64153277 Z" id="Fill-1"></path>
                </g>
            </g>
        </g>
    </g>
</svg>