<svg width="150px" height="38px" viewBox="0 0 150 38" version="1.1" xmlns="http://www.w3.org/2000/svg" xmlns:xlink="http://www.w3.org/1999/xlink">
    <!-- Generator: Sketch 46.2 (44496) - http://www.bohemiancoding.com/sketch -->
    <desc>Created with Sketch.</desc>
    <defs></defs>
    <g id="Page-1" stroke="none" stroke-width="1" fill="none" fill-rule="evenodd">
        <g id="首页" transform="translate(-53.000000, -5323.000000)" fill="#FFFFFF">
            <g id="底部" transform="translate(0.000000, 5284.000000)">
                <g id="logo" transform="translate(53.000000, 39.000000)">
                    <path d="M1.02827971,0 L5.52413964,0 C6.09184977,0 6.55241935,0.465209502 6.55241935,1.03939927 L6.55241935,36.6 C2.93356208,36.6 0,33.6347151 0,29.9767245 L0,1.03939927 C0,0.465209502 0.460232663,0 1.02827971,0" id="Fill-19"></path>
                    <path d="M28.7267685,19.3962245 C29.3216134,19.3962245 29.7231507,18.763329 29.4521809,18.2306875 C28.9661986,17.2758884 28.260117,16.4660141 27.3322403,15.7986777 C26.0516619,14.8752505 24.5618364,14.413537 22.8671727,14.413537 C21.0260021,14.413537 19.4147659,14.9308335 18.026003,15.9667906 C17.3887661,16.4435081 16.7851036,17.1827955 16.2153547,18.1877216 C15.9104713,18.7247961 16.3021736,19.3962245 16.9173667,19.3962245 L28.7267685,19.3962245 Z M35.4494659,24.6179528 L16.7769643,24.6179528 C15.9877943,24.6179528 15.4383936,25.4090721 15.7090243,26.1541564 C16.1370143,27.3316283 16.8237651,28.3133665 17.7682595,29.1041447 C19.0976735,30.2134167 20.7926764,30.7699282 22.8566595,30.7699282 C25.1349767,30.7699282 27.1155322,30.0279129 28.8044307,28.5438822 C29.064209,28.3154125 29.4386154,28.2731285 29.7509599,28.4207814 L33.7744721,30.3208316 C34.2964027,30.5673744 34.453762,31.2459638 34.0895296,31.6950604 C32.850665,33.221716 31.4174753,34.381115 29.7896214,35.1790543 C27.8579014,36.1243054 25.5646623,36.6 22.9054951,36.6 C18.7775289,36.6 15.4190629,35.2912432 12.8263664,32.6737295 C10.2296003,30.0596259 8.9351173,26.7805728 8.9351173,22.8471414 C8.9351173,18.812092 10.2296003,15.462793 12.8121227,12.7965164 C15.4014278,10.1333088 18.6418744,8.8 22.5436367,8.8 C26.6814379,8.8 30.0470258,10.1333088 32.6437919,12.7965164 C35.2364884,15.462793 36.5347019,18.9836148 36.5347019,23.3576179 L36.5309714,23.5513057 C36.5194407,24.1436222 36.0385456,24.6179528 35.4494659,24.6179528 L35.4494659,24.6179528 Z" id="Fill-21"></path>
                    <path d="M52.5710708,15.0426814 C50.5309058,15.0426814 48.8361602,15.7638957 47.4804312,17.1950715 C46.1247021,18.6299982 45.450376,20.4635535 45.450376,22.7001705 C45.450376,25.0026004 46.1179622,26.8641178 47.4595375,28.2891555 C48.7947099,29.7131702 50.4928254,30.4268826 52.5471441,30.4268826 C54.5977559,30.4268826 56.3059813,29.7056682 57.6687872,28.2642625 C59.0315932,26.8221748 59.7160291,24.9674775 59.7160291,22.7001705 C59.7160291,20.4325225 59.0454099,18.5914652 57.7034977,17.1701785 C56.3683253,15.7529837 54.6530231,15.0426814 52.5710708,15.0426814 M52.4605365,8.8 C54.9263256,8.8 57.2435001,9.42300644 59.41206,10.6686783 C61.5839898,11.9211702 63.2783984,13.6118467 64.4956227,15.7502557 C65.7098141,17.8879828 66.3184262,20.1941638 66.3184262,22.6756185 C66.3184262,25.1707133 65.7064441,27.5011052 64.4821429,29.6742962 C63.2575048,31.8440773 61.5873598,33.5415738 59.474067,34.7664446 C57.3611112,35.9913155 55.0338269,36.6 52.4881701,36.6 C48.7394428,36.6 45.5400166,35.2489592 42.8912395,32.5543796 C40.2421254,29.8563901 38.9173998,26.580747 38.9173998,22.7243815 C38.9173998,18.5914652 40.4112966,15.1514603 43.4065041,12.3972058 C46.0347246,9.99656792 49.0504888,8.8 52.4605365,8.8" id="Fill-23"></path>
                    <path d="M86.6498021,14.1400552 L83.8040893,16.561835 C83.3187319,16.9747856 82.6171328,16.9874026 82.1043215,16.608552 C80.4767473,15.4065281 78.9823752,14.8053456 77.6171381,14.8053456 C76.7406477,14.8053456 76.0519282,14.9587955 75.5580974,15.2742202 C75.0642665,15.5927139 74.8134534,15.9848635 74.8134534,16.4568071 C74.8134534,16.8100828 74.9737704,17.1391475 75.286948,17.4368402 C75.5997866,17.737943 76.3790022,18.1471426 77.6171381,18.6651211 L80.473019,19.879762 C83.4820994,21.1458939 85.5479188,22.4341907 86.6714941,23.7429476 C87.7950694,25.0588654 88.3583822,26.59882 88.3583822,28.3624704 C88.3583822,30.7102533 87.3429277,32.6737295 85.3116799,34.2416461 C83.2872107,35.8160417 80.5669045,36.6 77.1582177,36.6 C73.2011313,36.6 69.9385263,35.452877 67.3778592,33.1541981 C66.7721793,32.6103036 66.7555714,31.6616424 67.3527779,31.1085409 L70.2001854,28.4702263 C70.6855428,28.0207887 71.4298479,27.9733898 71.9467264,28.3859994 C72.6584936,28.9544459 73.4482162,29.4359374 74.3165721,29.8318381 C75.544201,30.3917596 76.6365941,30.6720613 77.5859559,30.6720613 C78.6156457,30.6720613 79.4433292,30.4623465 80.0730737,30.0388249 C80.6990898,29.6183723 81.0119284,29.1317657 81.0119284,28.5793462 C81.0119284,27.5607801 79.8819133,26.563356 77.6171381,25.5908249 L74.9876668,24.4743919 C69.9578457,22.3216608 67.4466634,19.6202613 67.4466634,16.3800822 C67.4466634,14.2907771 68.3929747,12.5056437 70.288309,11.025705 C72.1839822,9.54201533 74.6050073,8.8 77.5581631,8.8 C79.5792428,8.8 81.4783054,9.17782766 83.259079,9.92666299 C84.5378873,10.4691935 85.6746811,11.1794959 86.6721719,12.0589341 C87.298866,12.6113536 87.2856474,13.5988887 86.6498021,14.1400552" id="Fill-25"></path>
                    <path d="M120.063472,15.0776814 C118.026677,15.0776814 116.331932,15.7988957 114.976202,17.2300715 C113.62081,18.6649982 112.942777,20.4985535 112.942777,22.7351705 C112.942777,25.0376004 113.613397,26.8991178 114.951939,28.3241555 C116.290481,29.7481702 117.985227,30.4618826 120.039545,30.4618826 C122.093527,30.4618826 123.802427,29.7406682 125.164896,28.2992625 C126.527364,26.8571748 127.208767,25.0024775 127.208767,22.7351705 C127.208767,20.4675225 126.537811,18.6264652 125.199269,17.2051785 C123.857694,15.7879837 122.149131,15.0776814 120.063472,15.0776814 M119.956645,8.835 C122.418727,8.835 124.735901,9.45800644 126.907494,10.7036783 C129.076391,11.9561702 130.76743,13.6468467 131.988024,15.7852557 C133.201878,17.9229828 133.810828,20.2291638 133.810828,22.7106185 C133.810828,25.2057133 133.198845,27.5361052 131.977914,29.7092962 C130.746873,31.8790773 129.079424,33.5765738 126.966468,34.8014446 C124.853513,36.0263155 122.522521,36.635 119.977201,36.635 C116.235214,36.635 113.032755,35.2839592 110.383304,32.5893796 C107.734527,29.8913901 106.409801,26.615747 106.409801,22.7593815 C106.409801,18.6264652 107.907405,15.1864603 110.902275,12.4322058 C113.527126,10.0315679 116.546597,8.835 119.956645,8.835" id="Fill-27"></path>
                    <path d="M100.113959,10.8029613 L104.455223,10.8029613 C105.101773,10.8029613 105.625379,11.3313324 105.625379,11.9830015 L105.625379,14.2320796 C105.625379,14.8837487 105.101773,15.4124614 104.455223,15.4124614 L100.113959,15.4124614 C99.4873921,15.4124614 98.9793647,15.9244383 98.9793647,16.5562978 L98.9793647,28.6688727 C98.9793647,31.7246817 101.152029,32.5904999 102.639533,32.5904999 C104.130085,32.5904999 105.660264,32.1690326 107.289677,31.3257563 C107.802785,31.0603754 108.412757,31.4418819 108.412757,32.0231926 L108.412757,34.6677805 C108.412757,35.1708773 108.128261,35.6350378 107.674085,35.8430391 C105.942389,36.6357666 103.678618,37.2 102.239885,37.2 C96.6925639,37.2 92.4241175,33.7438996 92.4241175,29.0753121 L92.4241175,16.5562978 C92.4241175,15.9244383 91.91609,15.4124614 91.2895229,15.4124614 L87.9612659,15.4124614 L87.9612659,15.1955799 C87.9612659,14.968452 88.0605006,14.7525952 88.2328912,14.6060721 L97.6259796,6.59750966 C98.1604245,6.14188776 98.9793647,6.52510198 98.9793647,7.23107684 L98.9793647,9.65878333 C98.9793647,10.2906428 99.4873921,10.8029613 100.113959,10.8029613" id="Fill-29"></path>
                    <path d="M144.947458,5.29998513 C142.812397,5.29998513 141.07556,7.04943503 141.07556,9.19965804 C141.07556,11.350223 142.812397,13.1000149 144.947458,13.1000149 C147.08252,13.1000149 148.819357,11.350223 148.819357,9.19965804 C148.819357,7.04943503 147.08252,5.29998513 144.947458,5.29998513 M144.947458,13.8 C142.429451,13.8 140.380621,11.736292 140.380621,9.19965804 C140.380621,6.66336604 142.429451,4.6 144.947458,4.6 C147.465466,4.6 149.514296,6.66336604 149.514296,9.19965804 C149.514296,11.736292 147.465466,13.8 144.947458,13.8" id="Fill-31"></path>
                    <path d="M143.941336,9.00263896 L145.221755,9.00263896 C145.471684,9.00263896 145.661075,8.94424812 145.790267,8.82713278 C145.919121,8.71001744 145.983717,8.53451126 145.983717,8.30028058 C145.983717,8.16047623 145.962748,8.04669751 145.92115,7.95827709 C145.879552,7.86985668 145.822396,7.80078866 145.749683,7.75174035 C145.676632,7.70269205 145.593436,7.66965951 145.499755,7.65331008 C145.406074,7.63662698 145.309011,7.62861909 145.20958,7.62861909 L143.941336,7.62861909 L143.941336,9.00263896 Z M143.160435,7 L145.29041,7 C145.781812,7 146.150449,7.10476985 146.395981,7.31430955 C146.641851,7.52351558 146.764617,7.81546978 146.764617,8.18917115 C146.764617,8.39871085 146.733165,8.57221506 146.670936,8.71001744 C146.608369,8.84781982 146.535657,8.95859559 146.452122,9.0426784 C146.368925,9.12709487 146.286743,9.18748768 146.205575,9.22452415 C146.124407,9.26156063 146.064884,9.28625161 146.027344,9.2985971 L146.027344,9.31094259 C146.093969,9.31928414 146.166006,9.33963752 146.243115,9.37233639 C146.320224,9.40536892 146.391922,9.45775385 146.458547,9.52982483 C146.525173,9.60156214 146.580299,9.69498749 146.623927,9.81010086 C146.667892,9.92521423 146.689537,10.0686889 146.689537,10.2411921 C146.689537,10.5001137 146.709491,10.7353454 146.74906,10.9468871 C146.788291,11.1584288 146.849843,11.3095776 146.93304,11.4 L146.096337,11.4 C146.037828,11.30524 146.003332,11.2004702 145.992848,11.0856905 C145.982702,10.9705771 145.977629,10.8598013 145.977629,10.7526958 C145.977629,10.5518313 145.965116,10.3779935 145.940089,10.2321832 C145.915062,10.0863729 145.869406,9.96525366 145.802442,9.8684917 C145.736155,9.7720634 145.645518,9.70132706 145.530869,9.65594904 C145.416219,9.61090468 145.269441,9.58821567 145.090534,9.58821567 L143.941336,9.58821567 L143.941336,11.4 L143.160435,11.4 L143.160435,7 Z" id="Fill-33"></path>
                </g>
            </g>
        </g>
    </g>
</svg>