<svg width="650px" height="160px" viewBox="0 0 650 160" version="1.1" xmlns="http://www.w3.org/2000/svg" xmlns:xlink="http://www.w3.org/1999/xlink">
    <!-- Generator: Sketch 46.2 (44496) - http://www.bohemiancoding.com/sketch -->
    <desc>Created with Sketch.</desc>
    <defs></defs>
    <g id="Page-1" stroke="none" stroke-width="1" fill="none" fill-rule="evenodd">
        <g id="首页" transform="translate(-639.000000, -362.000000)" fill="#000000">
            <g id="头部">
                <g id="logo" transform="translate(639.000000, 362.642202)">
                    <path d="M4.4662761,0 L23.9937952,0 C26.4596128,0 28.4600713,1.98764071 28.4600713,4.44090735 L28.4600713,156.376105 C12.7417648,156.376105 0,143.706714 0,128.077689 L0,4.44090735 C0,1.98764071 1.99899514,0 4.4662761,0" id="Fill-19"></path>
                    <path d="M124.773131,82.8717495 C127.356807,82.8717495 129.100862,80.1676588 127.92392,77.89191 C125.813083,73.8124627 122.746256,70.3522172 118.716075,67.5009749 C113.153954,63.5555666 106.682979,61.5828625 99.3223008,61.5828625 C91.3252781,61.5828625 84.3269626,63.7930487 78.2949479,68.2192491 C75.5271444,70.2560588 72.9051697,73.4147166 70.430497,77.7083348 C69.1062525,80.0030239 70.80759,82.8717495 73.4796473,82.8717495 L124.773131,82.8717495 Z M153.972796,105.181955 L72.8698172,105.181955 C69.4421009,105.181955 67.0558094,108.562069 68.2312789,111.745495 C70.0902295,116.776327 73.0730939,120.970873 77.1754531,124.34953 C82.9496894,129.088973 90.3118407,131.466708 99.2766372,131.466708 C109.172382,131.466708 117.774816,128.296395 125.110453,121.955768 C126.238785,120.979615 127.864999,120.798954 129.22165,121.429811 L146.697553,129.547911 C148.96453,130.601283 149.648011,133.500604 148.065988,135.419401 C142.685048,141.942146 136.460068,146.895761 129.389574,150.305013 C120.999255,154.343666 111.038698,156.376105 99.488752,156.376105 C81.5591591,156.376105 66.9718473,150.784348 55.7106135,139.600835 C44.4317035,128.431891 38.8091882,114.421903 38.8091882,97.6160376 C38.8091882,80.376002 44.4317035,66.0658837 55.6487467,54.6740271 C66.8952503,43.2952831 80.9699513,37.5986263 97.9170402,37.5986263 C115.889351,37.5986263 130.507596,43.2952831 141.786506,54.6740271 C153.04774,66.0658837 158.686458,81.1088455 158.686458,99.797085 L158.670255,100.62463 C158.620172,103.155344 156.531431,105.181955 153.972796,105.181955 L153.972796,105.181955 Z" id="Fill-21"></path>
                    <path d="M228.33954,64.2709269 C219.478196,64.2709269 212.117163,67.3523665 206.228629,73.4671666 C200.340094,79.5979931 197.411196,87.4319888 197.411196,96.9880941 C197.411196,106.82539 200.31082,114.778855 206.137878,120.86743 C211.937126,126.951634 219.312796,130.001021 228.235616,130.001021 C237.142335,130.001021 244.561918,126.919582 250.48119,120.761073 C256.400462,114.599651 259.373272,106.675324 259.373272,96.9880941 C259.373272,87.2994068 256.460475,79.4333583 250.631953,73.3608096 C244.832705,67.3057443 237.382385,64.2709269 228.33954,64.2709269 M227.859441,37.5986263 C238.56946,37.5986263 248.633979,40.2604657 258.052999,45.5826874 C267.486656,50.9340481 274.846226,58.1575837 280.133173,67.2940887 C285.406946,76.4276798 288.050419,86.2810019 288.050419,96.883194 C288.050419,107.543664 285.392308,117.500429 280.074624,126.785543 C274.755476,136.056087 267.501293,143.308761 258.322323,148.542109 C249.144816,153.775457 239.036385,156.376105 227.979466,156.376105 C211.697076,156.376105 197.800545,150.603687 186.295728,139.090904 C174.789447,127.563552 169.035575,113.568133 169.035575,97.0915372 C169.035575,79.4333583 175.524233,64.7356925 188.533752,52.967944 C199.949282,42.7110479 213.048087,37.5986263 227.859441,37.5986263" id="Fill-23"></path>
                    <path d="M376.358626,60.4143922 L363.99843,70.7616189 C361.890307,72.5259798 358.84295,72.5798868 356.615583,70.9612204 C349.546304,65.8254877 343.055581,63.2568928 337.125749,63.2568928 C333.318762,63.2568928 330.327347,63.9125183 328.18242,65.2601928 C326.037493,66.6209799 324.9481,68.2964672 324.9481,70.3128797 C324.9481,71.8222752 325.644428,73.2282275 327.004697,74.5001409 C328.363495,75.7866238 331.747974,77.5349583 337.125749,79.7480585 L349.53011,84.9376982 C362.599885,90.3473367 371.572657,95.8516766 376.452844,101.443433 C381.333031,107.065786 383.77975,113.645352 383.77975,121.180673 C383.77975,131.211743 379.369179,139.600835 370.546566,146.29987 C361.753397,153.026587 349.937897,156.376105 335.132454,156.376105 C317.945068,156.376105 303.774123,151.47494 292.652008,141.653671 C290.02127,139.329843 289.949135,135.276621 292.543068,132.913455 L304.910625,121.641068 C307.018749,119.720814 310.251596,119.518299 312.49663,121.281203 C315.588151,123.709931 319.018268,125.767138 322.789923,127.458651 C328.122062,129.850956 332.866811,131.048565 336.990311,131.048565 C341.462712,131.048565 345.05771,130.152544 347.79297,128.343017 C350.512036,126.546604 351.870834,124.467542 351.870834,122.107291 C351.870834,117.755395 346.962676,113.493829 337.125749,109.338621 L325.704786,104.568581 C303.858036,95.3708846 292.950855,83.8289627 292.950855,69.985067 C292.950855,61.0583621 297.061106,53.4312526 305.293385,47.1081093 C313.527137,40.7689396 324.042726,37.5986263 336.869595,37.5986263 C345.648043,37.5986263 353.896516,39.2129219 361.631208,42.4123741 C367.185641,44.7303744 372.123242,47.7651917 376.455788,51.5226541 C379.177799,53.8829057 379.120385,58.1022198 376.358626,60.4143922" id="Fill-25"></path>
                    <path d="M521.303965,64.6723005 C512.457259,64.6723005 505.096225,67.7537402 499.207691,73.8685403 C493.32062,79.9993668 490.375621,87.8333625 490.375621,97.3894678 C490.375621,107.226764 493.288418,115.180229 499.102303,121.268804 C504.916188,127.353008 512.277221,130.402395 521.200041,130.402395 C530.121397,130.402395 537.543907,127.320955 543.461716,121.162447 C549.379524,115.001025 552.33916,107.076698 552.33916,97.3894678 C552.33916,87.7007805 549.4249,79.8347319 543.611015,73.7621833 C537.783957,67.7071179 530.362911,64.6723005 521.303965,64.6723005 M520.839967,38 C531.533885,38 541.598404,40.6618394 551.030597,45.9840611 C560.451081,51.3354218 567.796014,58.5589574 573.097597,67.6954624 C578.369907,76.8290535 581.014844,86.6823756 581.014844,97.2845677 C581.014844,107.945038 578.356733,117.901803 573.053686,127.186916 C567.706727,136.45746 560.464255,143.710135 551.286748,148.943483 C542.109241,154.176831 531.984709,156.777479 520.929254,156.777479 C504.676138,156.777479 490.766434,151.005061 479.258689,139.492278 C467.753872,127.964925 462,113.969507 462,97.4929109 C462,79.8347319 468.504759,65.1370661 481.512814,53.3693177 C492.913707,43.1124216 506.028613,38 520.839967,38" id="Fill-27"></path>
                    <path d="M434.839449,46.1564209 L453.695488,46.1564209 C456.50374,46.1564209 458.777998,48.4139241 458.777998,51.1982267 L458.777998,60.807573 C458.777998,63.5918757 456.50374,65.8508382 453.695488,65.8508382 L434.839449,65.8508382 C432.117989,65.8508382 429.9114,68.038296 429.9114,70.7379605 L429.9114,122.489799 C429.9114,135.54596 439.348246,139.24523 445.809138,139.24523 C452.283271,139.24523 458.929517,137.444481 466.006783,133.841524 C468.235438,132.707664 470.884816,134.337678 470.884816,136.821369 L470.884816,148.12056 C470.884816,150.270076 469.649126,152.253235 467.676436,153.141936 C460.154909,156.52892 450.322349,158.939648 444.073288,158.939648 C419.978807,158.939648 401.439046,144.173213 401.439046,124.22634 L401.439046,70.7379605 C401.439046,68.038296 399.232457,65.8508382 396.510997,65.8508382 L382.054897,65.8508382 L382.054897,64.9241966 C382.054897,63.9537766 382.485917,63.0315129 383.234686,62.4054826 L424.033047,28.1883296 C426.354378,26.2416526 429.9114,27.8789626 429.9114,30.8952905 L429.9114,41.2678392 C429.9114,43.9675037 432.117989,46.1564209 434.839449,46.1564209" id="Fill-29"></path>
                    <path d="M629.571275,22.6445637 C620.297754,22.6445637 612.753896,30.1192129 612.753896,39.3061938 C612.753896,48.4946357 620.297754,55.9707459 629.571275,55.9707459 C638.844795,55.9707459 646.388654,48.4946357 646.388654,39.3061938 C646.388654,30.1192129 638.844795,22.6445637 629.571275,22.6445637 M629.571275,58.9614822 C618.634449,58.9614822 609.735467,50.1441429 609.735467,39.3061938 C609.735467,28.4697057 618.634449,19.6538274 629.571275,19.6538274 C640.508101,19.6538274 649.407082,28.4697057 649.407082,39.3061938 C649.407082,50.1441429 640.508101,58.9614822 629.571275,58.9614822" id="Fill-31"></path>
                    <path d="M625.201235,38.4644157 L630.762668,38.4644157 C631.848219,38.4644157 632.67083,38.2149367 633.231967,37.7145531 C633.791636,37.2141694 634.072205,36.4643068 634.072205,35.4635395 C634.072205,34.8662155 633.98113,34.3800878 633.80045,34.0023053 C633.619769,33.6245228 633.371517,33.3294247 633.055694,33.1198624 C632.738401,32.9103 632.37704,32.7691661 631.970142,32.699312 C631.563244,32.6280323 631.141656,32.593818 630.709786,32.593818 L625.201235,32.593818 L625.201235,38.4644157 Z M621.809437,29.9079982 L631.060864,29.9079982 C633.195244,29.9079982 634.796396,30.3556349 635.862851,31.2509081 C636.930775,32.1447558 637.464003,33.3921509 637.464003,34.9888166 C637.464003,35.8840899 637.327391,36.625399 637.057105,37.2141694 C636.78535,37.8029399 636.469526,38.2762373 636.106696,38.635487 C635.745335,38.9961624 635.388381,39.254195 635.035834,39.412436 C634.683287,39.570677 634.424752,39.6761709 634.261699,39.7289179 L634.261699,39.7816649 C634.551082,39.8173048 634.863967,39.904266 635.198887,40.0439743 C635.533807,40.1851081 635.845224,40.4089265 636.134606,40.7168548 C636.423989,41.0233576 636.663427,41.4225241 636.852921,41.9143541 C637.043884,42.4061842 637.137897,43.0191898 637.137897,43.7562221 C637.137897,44.8624833 637.224565,45.8675274 637.396432,46.7713542 C637.566829,47.675181 637.834178,48.3209753 638.195539,48.7073114 L634.561364,48.7073114 C634.307236,48.3024426 634.157404,47.8548059 634.111866,47.3644015 C634.067798,46.8725714 634.045764,46.3992741 634.045764,45.9416583 C634.045764,45.0834504 633.991413,44.3407158 633.882711,43.717731 C633.774009,43.0947463 633.575701,42.5772555 633.284849,42.1638331 C632.996936,41.7518364 632.603258,41.4496104 632.105285,41.2557295 C631.607312,41.0632743 630.969789,40.9663339 630.192716,40.9663339 L625.201235,40.9663339 L625.201235,48.7073114 L621.809437,48.7073114 L621.809437,29.9079982 Z" id="Fill-33"></path>
                </g>
            </g>
        </g>
    </g>
</svg>
