<svg width="75px" height="80px" viewBox="0 0 75 80" version="1.1" xmlns="http://www.w3.org/2000/svg" xmlns:xlink="http://www.w3.org/1999/xlink">
    <!-- Generator: Sketch 46.2 (44496) - http://www.bohemiancoding.com/sketch -->
    <desc>Created with Sketch.</desc>
    <defs></defs>
    <g id="Page-1" stroke="none" stroke-width="1" fill="none" fill-rule="evenodd">
        <g id="服务" transform="translate(-693.000000, -1257.000000)" fill-rule="nonzero" fill="#FFCA00">
            <g id="创意互动" transform="translate(682.000000, 1257.000000)">
                <g id="创意库" transform="translate(11.000000, 0.000000)">
                    <path d="M30.5216683,0 L36.6141937,0 C36.8907315,0.0634096174 37.17122,0.112552179 37.4532887,0.14663479 C41.4972986,0.394811311 45.4748164,1.29653304 49.2322236,2.81697393 C52.898791,4.31451625 56.1859976,6.61404997 58.8541629,9.54790889 C63.1017853,14.2338824 65.32436,19.8852681 66.5434972,26.0027147 C66.8287264,27.4389434 66.8073934,28.9409596 67.6093533,30.2701846 C69.8611621,34.0414739 72.0466017,37.8571499 74.228881,41.653803 C75.7664318,44.3423724 74.9613114,47.011919 72.2006728,48.3997978 C70.7176395,49.1345572 69.2417171,49.9137033 67.7405113,50.6032835 C67.322544,50.7538814 67.0649687,51.1755556 67.1218565,51.6170453 C67.1218565,54.3785358 67.2387926,57.1542934 66.9827975,59.8975538 C66.5071523,64.9988606 63.7907599,68.6338191 59.1844283,70.8373046 C56.7303517,72.008798 54.1237844,72.0603184 51.495094,71.843933 C50.8614271,71.7924127 50.2277603,71.7741823 49.5063913,71.7369292 L49.5063913,80 L11.1932481,80 L11.1932481,79.103546 C11.1932481,75.8205111 11.28016,72.5343056 11.1600636,69.2544411 C11.0822447,67.1258226 10.8373432,65.0066651 10.4276332,62.916646 C9.62172267,58.8219674 7.59351462,55.25993 5.39306288,51.7605096 C4.14671801,49.7900639 3.08854767,47.7060051 2.23262964,45.5360593 C-0.567514328,38.3382707 -0.542230784,30.9494605 1.24815462,23.5281529 C2.43094679,18.6329275 4.54369651,14.1641319 7.83923828,10.333396 C12.8516855,4.55360593 19.332154,1.59713067 26.7544317,0.481120688 C28.0067535,0.290099061 29.2661861,0.157731441 30.5216683,0 Z M43.7544026,15.1113137 C42.3740833,16.1100158 41.0008751,17.0865244 39.6497898,18.0931528 C39.3582399,18.3467913 38.9355319,18.3784962 38.6100073,18.1700369 C37.6760993,17.7261693 36.6947847,17.3845497 35.7616667,16.9398896 C35.4926822,16.7944218 35.2962749,16.5431056 35.2196524,16.2463464 C34.8972882,14.5976953 34.6302316,12.9411181 34.3442124,11.2813704 L29.5845998,11.2813704 C29.3175432,12.874538 29.0425855,14.4360007 28.8047628,15.9998414 C28.8014177,16.5219605 28.425029,16.9663754 27.9119405,17.054027 C27.0395038,17.293027 26.1986617,17.6357551 25.4072971,18.0749224 C25.0375352,18.371639 24.5055886,18.3465187 24.1652468,18.0162685 C22.8473461,17.0175664 21.4891499,16.0735552 20.2510501,15.1810642 L16.9160028,18.5449466 C17.7724803,19.7386333 18.6368588,21.0385312 19.6031612,22.2575818 C20.059083,22.7286788 20.1101427,23.4608526 19.7240478,23.9910433 C19.3179321,24.7440329 18.9876669,25.5366537 18.7395729,26.3554309 C18.6611932,26.7702714 18.306884,27.0753538 17.8862559,27.0901903 C16.2088559,27.3802895 14.546468,27.7290425 12.8880305,28.0556023 L12.8880305,32.8295568 C14.5314559,33.1053888 16.1353758,33.3875617 17.7432462,33.6451635 C18.1643739,33.658638 18.5191327,33.963797 18.5965632,34.3791303 C18.8206103,35.179124 19.1361151,35.9504462 19.5367921,36.6777303 C19.9555495,37.2500024 19.8962914,38.041038 19.3985232,38.5435594 C18.4393318,39.7562691 17.5678422,41.0522039 16.7911657,42.1579098 L20.1380646,45.5360593 C21.4417434,44.5920481 22.7999396,43.5862124 24.1913204,42.6382379 C24.4825904,42.484597 24.824042,42.4579393 25.1354998,42.5645242 C26.0069892,42.8839504 26.8271217,43.3650711 27.6986112,43.63694 C28.2358848,43.7320545 28.6333094,44.1917746 28.6506917,44.7386828 C28.8703418,46.3033161 29.1634721,47.8568527 29.4273683,49.4135597 L34.2114742,49.4135597 C34.4974933,47.6658311 34.7613896,45.9727933 35.0687418,44.2726219 C35.1414317,43.9975825 35.3247369,43.7653446 35.574411,43.6298064 C36.5075289,43.1859389 37.484893,42.8292596 38.418801,42.385392 C38.7764591,42.1726825 39.2298085,42.2142305 39.5431252,42.4884326 C40.7807458,43.3916845 42.036757,44.2693013 43.3103618,45.120726 C43.4936669,45.241997 43.9037332,45.3077844 44.0175087,45.1976102 C45.0683528,44.2068344 46.0749507,43.166916 47.1036718,42.1349238 C46.0638893,40.688391 45.0936362,39.3036827 44.0870382,37.9490939 C43.8428165,37.6795847 43.8140901,37.2774454 44.0175087,36.9757557 C44.4702407,36.1863055 44.8392213,35.3500907 45.1157593,34.4821709 C45.3132864,33.7180845 45.712291,33.5421227 46.3973149,33.4652386 C47.9609393,33.2884841 49.5135022,33.0356382 51.0589542,32.8184601 L51.0589542,28.0445057 C49.3120247,27.7623327 47.6204028,27.508694 45.9319412,27.1884753 C45.6108619,27.0859682 45.3461591,26.8551223 45.2003008,26.5504156 C44.7862841,25.6618878 44.5042154,24.7139134 44.0609647,23.8293487 C43.8198198,23.464045 43.8576154,22.9809461 44.1526172,22.6578553 C45.1521042,21.2691839 46.1120858,19.8559411 47.0602159,18.4894631 L43.7536125,15.1113137 L43.7544026,15.1113137 Z M31.9533446,24.0124441 C28.4713372,24.0346375 25.479987,26.9831865 25.5716396,30.4390128 C25.5673999,32.1422981 26.2413609,33.7767585 27.4438047,34.979305 C28.6462485,36.1818516 30.2776024,36.852903 31.9754677,36.843388 C35.4574751,36.9099681 38.3540122,33.9059356 38.3500616,30.4168194 C38.3275778,26.8842229 35.4747814,24.028011 31.9533446,24.0124441 Z" id="Shape"></path>
                </g>
            </g>
        </g>
    </g>
</svg>