<svg width="46px" height="75px" viewBox="0 0 46 75" version="1.1" xmlns="http://www.w3.org/2000/svg" xmlns:xlink="http://www.w3.org/1999/xlink">
    <!-- Generator: Sketch 46.2 (44496) - http://www.bohemiancoding.com/sketch -->
    <desc>Created with Sketch.</desc>
    <defs></defs>
    <g id="Page-1" stroke="none" stroke-width="1" fill="none" fill-rule="evenodd">
        <g id="服务" transform="translate(-1145.000000, -1259.000000)" fill-rule="nonzero" fill="#FFCA00">
            <g id="移动界面" transform="translate(1088.000000, 1259.000000)">
                <path d="M97.8009975,7.19173089e-05 L62.1566784,7.19173089e-05 C62.1566784,7.19173089e-05 57.0376591,-0.0823506649 57.0376591,5.33342616 L57.0110665,69.6918801 C57.0110665,69.6918801 56.5312045,74.99993 61.891213,74.99993 L98.0397784,74.99993 C98.0397784,74.99993 102.999519,75.0791437 102.999519,69.9075174 L102.999519,5.33553488 C102.99961,5.33553488 103.154933,7.19173089e-05 97.8009975,7.19173089e-05 L97.8009975,7.19173089e-05 L97.8009975,7.19173089e-05 Z M74.8460163,2.59101933 L85.0800063,2.59101933 L85.0800063,5.17380697 L74.8460163,5.17380697 L74.8460163,2.59101933 L74.8460163,2.59101933 Z M71.0072118,2.59101933 C71.715825,2.59101933 72.2875187,3.16568522 72.2875187,3.88090037 C72.2875187,4.59492365 71.7178493,5.17481544 71.0072118,5.17481544 C70.300715,5.17481544 69.7291133,4.59593212 69.7291133,3.88090037 C69.7291133,3.16568522 70.300715,2.59101933 71.0072118,2.59101933 L71.0072118,2.59101933 L71.0072118,2.59101933 Z M79.9630112,69.826195 C78.5480853,69.826195 77.4046058,68.6704455 77.4046058,67.2422155 C77.4046058,65.8139856 78.5500176,64.6543854 79.9630112,64.6543854 C81.3801456,64.6543854 82.5235331,65.8139856 82.5235331,67.2422155 C82.5256495,68.6664115 81.3801456,69.826195 79.9630112,69.826195 L79.9630112,69.826195 L79.9630112,69.826195 Z M97.9847529,59.4785417 L61.9423737,59.4785417 L61.9423737,7.75760309 L97.9847529,7.75760309 L97.9847529,59.4785417 L97.9847529,59.4785417 Z" id="Shape"></path>
            </g>
        </g>
    </g>
</svg>