<svg width="75px" height="67px" viewBox="0 0 75 67" version="1.1" xmlns="http://www.w3.org/2000/svg" xmlns:xlink="http://www.w3.org/1999/xlink">
    <!-- Generator: Sketch 46.2 (44496) - http://www.bohemiancoding.com/sketch -->
    <desc>Created with Sketch.</desc>
    <defs></defs>
    <g id="Page-1" stroke="none" stroke-width="1" fill="none" fill-rule="evenodd">
        <g id="服务" transform="translate(-1596.000000, -1261.000000)" fill-rule="nonzero" fill="#FFCA00">
            <g id="开发运维" transform="translate(1558.000000, 1261.000000)">
                <g id="开发者中心" transform="translate(38.000000, 0.000000)">
                    <path d="M0,64 L0,61.625 L0,61.625 C-2.02906125e-16,59.9681458 1.34314575,58.625 3,58.625 L72,58.625 L72,58.625 C73.6568542,58.625 75,59.9681458 75,61.625 L75,64 L75,64 C75,65.6568542 73.6568542,67 72,67 L3,67 L3,67 C1.34314575,67 2.02906125e-16,65.6568542 0,64 Z M3,0 L72,0 L72,0 C73.6568542,-3.04359188e-16 75,1.34314575 75,3 L75,51.4375 L75,51.4375 C75,53.0943542 73.6568542,54.4375 72,54.4375 L3,54.4375 L3,54.4375 C1.34314575,54.4375 2.02906125e-16,53.0943542 0,51.4375 L0,3 L0,3 C-2.02906125e-16,1.34314575 1.34314575,3.04359188e-16 3,0 Z M66.6666667,46.0625 L66.6666667,8.375 L8.825,8.375 L8.33333333,46.0625 L66.6666667,46.0625 Z M16.1625,26.3519375 L25,17.47025 L27.9458333,20.4308125 L19.1083333,29.3125 L27.9458333,38.1941875 L25,41.15475 L16.1625,32.2730625 L13.2166667,29.3125 L16.1625,26.3519375 Z M44.3083333,11.7878125 L34.6791667,43.859875 L30.6875,42.6496875 L40.3208333,10.577625 L44.3083333,11.7878125 Z M49.1958333,16.817 L59.1208333,26.188625 L62.4291667,29.3125 L59.1208333,32.436375 L49.1958333,41.808 L45.8875,38.684125 L55.8125,29.3125 L45.8875,19.940875 L49.1958333,16.817 Z" id="Shape"></path>
                </g>
            </g>
        </g>
    </g>
</svg>