<svg width="20px" height="16px" viewBox="0 0 20 16" version="1.1" xmlns="http://www.w3.org/2000/svg" xmlns:xlink="http://www.w3.org/1999/xlink">
    <!-- Generator: Sketch 48.2 (47327) - http://www.bohemiancoding.com/sketch -->
    <desc>Created with Sketch.</desc>
    <defs></defs>
    <g id="Page-1" stroke="none" stroke-width="1" fill="none" fill-rule="evenodd">
        <g id="二屏" transform="translate(-128.000000, -1998.000000)" fill="#A7A7A7" fill-rule="nonzero">
            <g id="底部" transform="translate(20.000000, 1699.000000)">
                <g id="微信" transform="translate(108.000000, 299.000000)">
                    <path d="M13.8459636,5.00957922 C14.0812052,5.00957922 14.3131636,5.02653506 14.543439,5.0521974 C13.9170494,2.15351688 10.7988779,0 7.23902338,0 C3.25971948,0 0,2.69545974 0,6.11821299 C0,8.09417143 1.08473766,9.71659221 2.89678961,10.9749403 L2.17273766,13.1390338 L4.70337662,11.8778597 C5.60891429,12.0560831 6.33572987,12.2391481 7.23902338,12.2391481 C7.46647273,12.2391481 7.69176104,12.2280519 7.91474286,12.2104727 C7.77385974,11.7296 7.6916987,11.2258494 7.6916987,10.7031273 C7.69167792,7.55997922 10.407626,5.00951688 13.8459429,5.00951688 L13.8459636,5.00957922 Z M9.95378701,3.05899221 C10.4991792,3.05899221 10.8598026,3.41527273 10.8598026,3.95665455 C10.8598026,4.49572987 10.4991584,4.85737143 9.95378701,4.85737143 C9.41171948,4.85737143 8.86686753,4.49577143 8.86686753,3.95665455 C8.86688831,3.41525195 9.4116987,3.05899221 9.95378701,3.05899221 Z M4.88758442,4.85735065 C4.34497662,4.85735065 3.79731948,4.49575065 3.79731948,3.95663377 C3.79731948,3.41525195 4.34497662,3.05897143 4.88758442,3.05897143 C5.43019221,3.05897143 5.79085714,3.41525195 5.79085714,3.95663377 C5.79085714,4.49575065 5.43023377,4.85735065 4.88758442,4.85735065 Z M19.8853818,10.516426 C19.8853818,7.86813506 17.2110545,5.70927792 14.2077506,5.70927792 C11.0274286,5.70927792 8.52234805,7.86811429 8.52234805,10.516426 C8.52234805,13.1692675 11.0274078,15.3235948 14.2077506,15.3235948 C14.8735584,15.3235948 15.5448727,15.157174 16.2129247,14.9910234 L18.0467117,15.9859117 L17.544,14.3305558 C18.8856104,13.3330701 19.8854234,12.0102857 19.8854234,10.5163844 L19.8853818,10.516426 Z M12.3645922,9.68733506 C12.0316468,9.68733506 11.695439,9.35952208 11.695439,9.02468571 C11.695439,8.69464935 12.031626,8.3620987 12.3645922,8.3620987 C12.870026,8.3620987 13.2012675,8.69464935 13.2012675,9.02468571 C13.2012468,9.35948052 12.8700468,9.68733506 12.3645922,9.68733506 Z M16.0409351,9.68733506 C15.7101922,9.68733506 15.3773299,9.35952208 15.3773299,9.02468571 C15.3773299,8.69464935 15.7102338,8.3620987 16.0409351,8.3620987 C16.5419429,8.3620987 16.8776312,8.69464935 16.8776312,9.02468571 C16.8776312,9.35948052 16.5419429,9.68733506 16.0409351,9.68733506 Z" id="Shape"></path>
                </g>
            </g>
        </g>
    </g>
</svg>