
<svg width="20px" height="16px" viewBox="0 0 20 16" version="1.1" xmlns="http://www.w3.org/2000/svg" xmlns:xlink="http://www.w3.org/1999/xlink">
    <!-- Generator: Sketch 48.2 (47327) - http://www.bohemiancoding.com/sketch -->
    <desc>Created with Sketch.</desc>
    <defs></defs>
    <g id="Page-1" stroke="none" stroke-width="1" fill="none" fill-rule="evenodd">
        <g id="二屏" transform="translate(-228.000000, -1998.000000)" fill="#A7A7A7" fill-rule="nonzero">
            <g id="底部" transform="translate(20.000000, 1699.000000)">
                <g id="微博" transform="translate(208.000000, 299.000000)">
                    <path d="M14.7486102,7.83196841 C14.5209146,7.78630788 14.3731872,7.71812261 14.305219,7.6274327 C14.2372508,7.53674278 14.225894,7.45319261 14.2709274,7.37701535 L14.3393096,7.26338663 C14.3544655,7.24823078 14.3696213,7.22550906 14.3851872,7.19499233 C14.4007531,7.16447559 14.4310648,7.09987225 14.4762993,7.00139939 C14.5215337,6.90292653 14.5556243,6.80422051 14.5789973,6.70573559 C14.6023702,6.60725067 14.621305,6.485839 14.6358176,6.34168953 C14.6503303,6.19754006 14.6465554,6.06097655 14.6242317,5.93176586 C14.6019079,5.80255918 14.5562635,5.66240572 14.487242,5.51089941 C14.4182206,5.35939312 14.3233015,5.22281353 14.202521,5.10097574 C13.9899812,4.88843596 13.7128381,4.75166343 13.3717349,4.69105206 C13.0304226,4.6304407 12.6890862,4.62644872 12.347983,4.67947814 C12.0066707,4.73251157 11.6842691,4.80068478 11.3810515,4.88401386 C11.0776047,4.96754794 10.8274045,5.04710212 10.6302296,5.12285727 L10.3345658,5.25985092 C10.1826253,5.30551145 10.0574227,5.33582316 9.95872873,5.35096294 C9.86024381,5.3661188 9.78428362,5.36211074 9.73082807,5.33938902 C9.67737252,5.31666731 9.63570799,5.29372849 9.60562544,5.27099472 C9.57554689,5.24826094 9.56416593,5.19502247 9.57133381,5.11148839 C9.57870671,5.02795029 9.58605146,4.95597404 9.59386256,4.89516167 C9.60164552,4.83455031 9.62057626,4.73964733 9.65068295,4.61044063 C9.68078964,4.48123394 9.7037003,4.37875304 9.7190652,4.3032029 C9.7190652,4.12117988 9.70771238,3.95051367 9.68477356,3.79122443 C9.66183475,3.63193518 9.6125923,3.4538961 9.53683713,3.25672927 C9.46108197,3.05955039 9.35124424,2.90046616 9.20688171,2.77904243 C9.06251918,2.6576187 8.88070118,2.55914182 8.66081664,2.48337863 C8.44090397,2.40762749 8.15641611,2.38489372 7.80729677,2.41498433 C7.45817742,2.44507896 7.06384779,2.53619096 6.62402246,2.68811937 C6.09288007,2.87014239 5.55439295,3.13928145 5.00811883,3.49576163 C4.46205377,3.85202474 3.98793679,4.2236447 3.58600109,4.61062957 C3.18406942,4.99761443 2.8160153,5.37302539 2.48207593,5.73707947 C2.14811244,6.10112553 1.89013324,6.39699435 1.70811022,6.62468998 L1.45770895,6.98873202 C0.957083318,7.64128606 0.585668379,8.29362302 0.342841012,8.94617708 C0.100017685,9.59873112 -0.0136271104,10.0915618 0.00129958344,10.4251031 L0.00129958344,10.90279 C0.0926206447,11.6308901 0.316308216,12.2834321 0.672567298,12.860235 C1.0288304,13.437038 1.45370089,13.9035609 1.94695362,14.259824 C2.44020636,14.6160871 3.0205912,14.9195339 3.68808401,15.1701522 C4.35557683,15.4205696 4.99655695,15.6028097 5.61123744,15.7162173 C6.22591391,15.829846 6.87447597,15.9094002 7.55689148,15.9550607 C8.67977152,16.0463938 9.84408693,15.9592738 11.0500709,15.6937006 C12.2558458,15.4281314 13.3784967,14.9691823 14.4180477,14.3166283 C15.4575987,13.6640743 16.1894657,12.8827357 16.6143362,11.9726245 C16.8721103,11.4414942 17.0048909,10.9408686 17.0126739,10.4703496 C17.0204568,10.0000357 16.9409268,9.61682972 16.7738305,9.32117796 C16.6067583,9.02551416 16.3904155,8.76394902 16.1250634,8.53626947 C15.8597113,8.30858592 15.6092819,8.14150165 15.3742415,8.03523378 C15.1392011,7.9289659 14.9306413,7.86078867 14.7488273,7.83069806 L14.7486102,7.83196841 Z M7.80810885,14.9094513 C6.16967646,14.9852025 4.77787446,14.6663948 3.63269481,13.9532455 C2.48751515,13.2400922 1.91494142,12.3373298 1.91494142,11.2451836 C1.91494142,10.1679762 2.4839453,9.23871318 3.62175203,8.45757959 C4.75955879,7.67645806 6.15536883,7.24779661 7.80893295,7.17161933 C9.46249707,7.09544204 10.8581021,7.36837208 11.9961098,7.99083551 C13.1339166,8.61307784 13.7029205,9.46281078 13.7029205,10.5395961 C13.7029205,11.6319473 13.1225356,12.6142558 11.9617901,13.4865014 C10.8010445,14.3589561 9.41681642,14.8328519 7.80890481,14.9086031 L7.80810885,14.9094513 Z M7.14839899,8.60530698 C6.70860181,8.65096751 6.31424403,8.75344843 5.96512469,8.91254472 C5.61600534,9.07184602 5.3428703,9.25386904 5.14592054,9.45860978 C4.94874167,9.66357161 4.78187448,9.88346821 4.64488485,10.1183196 C4.5078912,10.3533721 4.41297613,10.5846376 4.36016381,10.8123211 C4.30735148,11.0400047 4.27305583,11.2485485 4.25746581,11.4377233 C4.24189991,11.6268981 4.23432197,11.7748345 4.23493705,11.8811064 L4.25746581,12.0631294 L4.25746581,12.1542415 C4.25746581,12.199902 4.27282669,12.290809 4.30334342,12.4273765 C4.33386015,12.563739 4.37572971,12.6889416 4.42854605,12.8032136 C4.48135838,12.9172644 4.56869952,13.0424791 4.68989009,13.1790507 C4.81131383,13.3154131 4.95544722,13.429259 5.12254756,13.52058 C6.12400387,14.0060498 7.05705381,14.1537651 7.9217255,13.9639591 C8.7863972,13.7741532 9.48419771,13.3379258 10.015316,12.6554862 C10.2278557,12.397712 10.3682102,12.0789004 10.4361824,11.6992804 C10.5041546,11.3196603 10.4887897,10.9366675 10.3903048,10.5501087 C10.2918199,10.163755 10.1211497,9.81106582 9.87832634,9.49204912 C9.63570803,9.17303645 9.27543687,8.92640606 8.79775003,8.75217002 C8.3200632,8.57792994 7.76999007,8.52868749 7.14775981,8.60423359 L7.14839899,8.60530698 Z M6.32919485,12.9067558 C6.23787379,12.9216946 6.15074169,12.9256986 6.06785081,12.9183257 C5.98472677,12.9109649 5.90897162,12.895809 5.83995015,12.8724481 C5.77092871,12.8490872 5.70275148,12.8227835 5.63539836,12.793111 C5.56784024,12.7634425 5.51104397,12.721778 5.4649372,12.6679084 C5.41885454,12.6140428 5.37719001,12.5608043 5.33973456,12.5084021 C5.30228311,12.4559998 5.2719714,12.3954005 5.24862254,12.326379 C5.22527369,12.2573576 5.21389273,12.1853934 5.21433091,12.1100523 C5.21433091,11.9429681 5.2600035,11.7798878 5.35132456,11.6207916 C5.44264562,11.4616953 5.56787238,11.3249227 5.72716164,11.2108679 C5.88645089,11.0968131 6.06448997,11.0322097 6.26166887,11.017275 C6.3980193,11.0023362 6.53082399,11.0061272 6.66000656,11.0288489 C6.78921726,11.0515706 6.89905501,11.0894602 6.98996199,11.1424776 C7.08086899,11.1954949 7.16042315,11.2561063 7.2288054,11.3245006 C7.29718764,11.3928949 7.34643011,11.4726421 7.37653279,11.563344 C7.40661134,11.654251 7.42197222,11.75274 7.4224104,11.8590078 C7.4224104,12.0260921 7.37316793,12.1851763 7.27447397,12.3366947 C7.17598905,12.4882009 7.04320848,12.6169855 6.87613628,12.7232534 C6.70906407,12.8295213 6.52701693,12.8903377 6.33007122,12.9052764 L6.32919485,12.9067558 Z M8.26326693,11.2683234 C8.15699503,11.3440786 8.04695228,11.3783823 7.9333115,11.3710094 C7.81967073,11.3636485 7.74014069,11.3144061 7.69446809,11.223278 L7.64859048,11.1321619 C7.63343462,11.1016452 7.62606173,11.0713455 7.62606173,11.0410499 L7.62606173,10.9499339 C7.62606173,10.9042733 7.63363964,10.8663958 7.64859048,10.8363051 L7.69446809,10.7451931 C7.70941893,10.7146764 7.73235773,10.6917376 7.76285034,10.6767988 L7.83123258,10.5856828 C7.95265632,10.4943497 8.07007599,10.4564761 8.18371677,10.4720541 C8.29735754,10.487632 8.37688758,10.5482313 8.42256018,10.6540771 C8.46823277,10.7146885 8.48716352,10.7830667 8.47938056,10.8586128 C8.4715976,10.934368 8.44886383,11.0063442 8.41099832,11.0749395 C8.37310869,11.1433338 8.32389436,11.2079372 8.26327093,11.2685325 L8.26327095,11.2683234 L8.26326693,11.2683234 Z M16.3417801,6.51192155 C16.4330971,6.51192155 16.5166593,6.48919984 16.5921813,6.44352725 C16.6679365,6.39786672 16.7285317,6.34104633 16.7742043,6.27307814 C16.8198769,6.20510996 16.8501645,6.1329287 16.8653204,6.05675143 C16.8804762,6.04181265 16.8878491,6.01887386 16.8878491,5.98835712 C17.0698722,4.2586077 16.4629746,3.27251227 15.0673937,3.02967286 C14.6576751,2.95392172 14.2782722,2.9463438 13.9291528,3.00715616 C13.8228849,3.00715616 13.7317689,3.03366484 13.6560178,3.08649325 C13.5802626,3.13930557 13.5156593,3.20769988 13.4624087,3.29102896 C13.4089532,3.37456706 13.3824445,3.46168308 13.3830877,3.55238908 C13.3830877,3.70431749 13.4363383,3.83332316 13.5426061,3.93894782 C13.648874,4.04479357 13.7778797,4.09803204 13.9291769,4.09845414 C15.1126563,3.825098 15.7498334,4.20451698 15.8407444,5.236683 C15.8712611,5.49445716 15.8561052,5.73709155 15.7948667,5.96478316 C15.7948667,6.11671157 15.8481173,6.24571725 15.9543892,6.3513419 C16.060657,6.45718765 16.1896587,6.51042612 16.341165,6.51084823 L16.3417801,6.51192155 Z M15.9552334,0.0949846542 C15.2877406,-0.056943754 14.3925562,-0.0266441009 13.2697002,0.186096675 C13.2545444,0.186096675 13.2393885,0.193674593 13.2238226,0.208613368 L13.2012939,0.254490981 L13.1787651,0.277007675 C13.0116929,0.322668205 12.8751133,0.417583266 12.7688414,0.561728715 C12.6625736,0.705874164 12.6093231,0.861593552 12.6093231,1.02847278 C12.6093231,1.25615633 12.6852832,1.44575327 12.8372237,1.59727163 C12.9891642,1.74877792 13.1711872,1.82474614 13.3832888,1.82517229 L13.451671,1.82517229 C13.4666218,1.82517229 13.5009135,1.81759437 13.554369,1.80265559 C13.6078246,1.78749974 13.664645,1.77614692 13.7248302,1.76834788 C13.7850154,1.76056492 13.8496187,1.74520404 13.9184352,1.72247027 C13.9872516,1.69973649 14.0480559,1.67680974 14.1004582,1.65407596 C14.1528605,1.63134218 14.2553293,1.61976825 14.4076839,1.61976825 C14.5600344,1.61976825 14.7460655,1.63113312 14.96554,1.65407596 C15.1850144,1.67701478 15.4276609,1.73361806 15.6936281,1.82452506 C15.9595952,1.91543206 16.2251805,2.02906078 16.4903275,2.16605443 C16.7554746,2.30304808 17.0208267,2.49244 17.2870311,2.73485329 C17.5530264,2.97706155 17.7844969,3.25777451 17.9810325,3.57658618 C18.3755913,4.47177461 18.4517847,5.33664733 18.2089332,6.17122441 C18.2089332,6.18616318 18.2051583,6.20152406 18.1973472,6.21710202 C18.1895643,6.23266792 18.1782114,6.27055757 18.1630556,6.33073074 C18.1478997,6.3909039 18.1327439,6.44773635 18.117178,6.50117984 C18.1016121,6.55463539 18.0864562,6.62280859 18.0713004,6.70571555 C18.0561445,6.78883959 18.0487716,6.86080378 18.0487716,6.92204227 C18.0487716,7.05840476 18.0866612,7.17225057 18.1624164,7.26357163 C18.2381675,7.35490476 18.3330826,7.41929102 18.4471374,7.45716457 C18.5611923,7.49503812 18.6939688,7.51398496 18.8454751,7.51398496 C19.2703496,7.51398496 19.5205459,7.2559897 19.596297,6.73979814 C19.77832,6.14806049 19.880813,5.58304859 19.9035187,5.04454537 C19.9262524,4.50626325 19.8883628,4.03215835 19.7898779,3.62244372 C19.691389,3.21272506 19.5434565,2.82973621 19.3464867,2.47327208 C19.1493078,2.11700898 18.9218454,1.81356223 18.663428,1.56294388 C18.4052196,1.31253055 18.1167197,1.084847 17.7983462,0.879885164 C17.4799728,0.674923328 17.172518,0.511835062 16.8764441,0.390624409 C16.5803702,0.269200675 16.2729154,0.170727817 15.954542,0.0949606134 L15.9552334,0.0949606134 L15.9552334,0.0949846542 Z" id="Shape"></path>
                </g>
            </g>
        </g>
    </g>
</svg>